<?xml version="1.0" encoding="utf-8"?>
<!-- Generator: Adobe Illustrator 15.0.0, SVG Export Plug-In  -->
<!DOCTYPE svg PUBLIC "-//W3C//DTD SVG 1.1//EN" "http://www.w3.org/Graphics/SVG/1.1/DTD/svg11.dtd" [
	<!ENTITY ns_flows "http://ns.adobe.com/Flows/1.0/">
]>
<svg version="1.1"
	 xmlns="http://www.w3.org/2000/svg" xmlns:xlink="http://www.w3.org/1999/xlink" xmlns:a="http://ns.adobe.com/AdobeSVGViewerExtensions/3.0/"
	 x="0px" y="0px" width="35px" height="35px" viewBox="0.002 -0.168 40 40" enable-background="new 0.002 -0.168 40 40"
	 xml:space="preserve">
<defs>
</defs>
<path fill="#FAFAFA" d="M23.229,34.273h-6.624L7.163,9.917h6.061c0.516,0,0.951,0.122,1.304,0.364
	c0.352,0.243,0.59,0.544,0.716,0.904l3.382,10.922c0.266,0.893,0.521,1.762,0.763,2.606c0.243,0.847,0.451,1.693,0.623,2.539
	c0.173-0.849,0.384-1.692,0.636-2.539c0.249-0.845,0.517-1.714,0.797-2.606l3.523-10.922c0.126-0.361,0.359-0.661,0.704-0.904
	c0.346-0.242,0.754-0.364,1.222-0.364h5.778L23.229,34.273z"/>
<path fill="#FAFAFA" d="M19.917,39.832C8.935,39.832,0,30.897,0,19.916S8.935,0,19.917,0s19.916,8.935,19.916,19.916
	S30.899,39.832,19.917,39.832z M19.917,0.866c-10.505,0-19.051,8.546-19.051,19.05c0,10.505,8.546,19.052,19.051,19.052
	c10.504,0,19.051-8.547,19.051-19.052C38.968,9.412,30.421,0.866,19.917,0.866z"/>
</svg>
